# xmcd CD database file
# Copyright (C) 1993-1998 Ti Kan
#
# Track frame offsets:
#	150
#	13120
#	25340
#	39657
#	52510
#	62290
#	74582
#	86712
#	99717
#	116167
#
# Disc length: 1704 seconds
#
# Revision: 1
# Processed by: cddbd v1.4b41PL1 Copyright (c) Steve Scherf et al.
# Submitted via: NotifyCDPlayer(CDDB) 1.51.3
#
DISCID=8006a60a
DTITLE=Merle Haggard - Greatest Hits
DYEAR=1900
DGENRE=
TTITLE0=Swingin' Doors
TTITLE1=The Bottle Let Me Down
TTITLE2=Branded Man
TTITLE3=Sing Me Back Home
TTITLE4=Mama Tried
TTITLE5=Workin' Man Blues
TTITLE6=Okie From Muskogee
TTITLE7=The Fightin' Side of Me
TTITLE8=Daddy Frank (The Guitar Man)
TTITLE9=Carolyn
EXTD=
EXTT0=
EXTT1=
EXTT2=
EXTT3=
EXTT4=
EXTT5=
EXTT6=
EXTT7=
EXTT8=
EXTT9=
PLAYORDER=
